<svg xmlns="http://www.w3.org/2000/svg" viewBox="0 0 576 256" width="576" height="256"><defs>
<radialGradient id="sh-soot"><stop offset="0" stop-color="#05080b" stop-opacity="0.78"></stop><stop offset="0.55" stop-color="#05080b" stop-opacity="0.42"></stop><stop offset="1" stop-color="#05080b" stop-opacity="0"></stop></radialGradient>
<radialGradient id="sh-hot"><stop offset="0" stop-color="#ff9430" stop-opacity="0.8"></stop><stop offset="0.45" stop-color="#e0561a" stop-opacity="0.38"></stop><stop offset="1" stop-color="#e0561a" stop-opacity="0"></stop></radialGradient>
</defs><g transform="translate(0,0)"><path d="M87.3 48.0L83.3 60.9L73.4 71.1L60.4 79.3L44.9 72.4L27.8 76.7L12.7 69.1L6.4 55.3L9.2 41.2L23.6 33.5L33.8 27.8L45.0 24.7L58.0 22.8L71.6 26.5L84.4 34.7Z" fill="#1b222a" stroke="#0a0d10" stroke-width="3" opacity="1" stroke-linecap="round" stroke-linejoin="round"></path><path d="M73.2 51.0L63.4 56.8L58.4 60.9L52.0 64.4L41.5 69.5L29.8 65.6L35.2 54.0L24.9 45.9L35.8 40.7L40.7 30.9L52.6 33.4L64.3 34.1L63.9 45.0Z" fill="#080b0e" stroke="none" stroke-width="0" opacity="1" stroke-linecap="round" stroke-linejoin="round"></path><path d="M34.8 34L61.2 36" fill="none" stroke="#54636f" stroke-width="1.6" opacity="0.4" stroke-linecap="round" stroke-linejoin="round"></path><path d="M35.9 48L60.1 50" fill="none" stroke="#54636f" stroke-width="1.6" opacity="0.4" stroke-linecap="round" stroke-linejoin="round"></path><path d="M36.0 62L60.0 64" fill="none" stroke="#54636f" stroke-width="1.6" opacity="0.4" stroke-linecap="round" stroke-linejoin="round"></path><path d="M22 26a40 40 0 0 1 36 -8" fill="none" stroke="#b4c1cc" stroke-width="2" opacity="0.3" stroke-linecap="round" stroke-linejoin="round"></path></g>
<g transform="translate(96,0)"><path d="M101.9 56.0L92.6 69.3L78.7 76.7L70.7 93.2L52.1 86.3L41.1 77.1L27.5 73.0L17.4 62.7L27.8 51.1L25.9 38.1L41.3 35.2L51.4 19.8L68.9 23.4L78.9 35.2L90.2 43.5Z" fill="none" stroke="#0a0d10" stroke-width="4" opacity="0.9" stroke-linecap="round" stroke-linejoin="round"></path><path d="M101.9 56.0L92.6 69.3L78.7 76.7L70.7 93.2L52.1 86.3L41.1 77.1L27.5 73.0L17.4 62.7L27.8 51.1L25.9 38.1L41.3 35.2L51.4 19.8L68.9 23.4L78.9 35.2L90.2 43.5Z" fill="none" stroke="#7d4d27" stroke-width="2" opacity="0.34" stroke-linecap="round" stroke-linejoin="round"></path><path d="M94.5 52.0L90.8 65.8L77.8 74.6L65.3 83.1L48.9 84.1L27.9 87.7L24.4 69.1L0.3 61.2L0.9 42.9L14.5 29.1L36.1 28.0L49.5 24.6L66.3 18.4L82.6 25.1L89.6 38.6Z" fill="none" stroke="#5c4029" stroke-width="8" opacity="0.14" stroke-linecap="round" stroke-linejoin="round"></path><path d="M22 34a48 48 0 0 1 40 -12" fill="none" stroke="#b4c1cc" stroke-width="2.5" opacity="0.28" stroke-linecap="round" stroke-linejoin="round"></path></g>
<g transform="translate(208,0)"><path d="M112.0 64.0L117.2 86.9L94.7 100.5L69.6 101.8L49.2 96.0L27.5 90.5L11.9 74.5L3.4 51.8L20.3 32.3L44.9 22.7L70.7 18.8L94.7 27.5L108.2 45.0Z" fill="url(#sh-hot)" stroke="none" stroke-width="0" opacity="1" stroke-linecap="round" stroke-linejoin="round"></path><path d="M105.4 64.0L91.1 73.9L93.0 90.4L78.1 99.5L60.0 95.5L45.2 90.7L36.8 80.2L16.1 72.4L29.6 58.0L30.5 44.1L47.4 40.4L60.0 33.0L79.2 25.5L87.7 42.4L101.4 50.4Z" fill="none" stroke="#c2521c" stroke-width="9" opacity="0.4" stroke-linecap="round" stroke-linejoin="round"></path><path d="M105.4 64.0L91.1 73.9L93.0 90.4L78.1 99.5L60.0 95.5L45.2 90.7L36.8 80.2L16.1 72.4L29.6 58.0L30.5 44.1L47.4 40.4L60.0 33.0L79.2 25.5L87.7 42.4L101.4 50.4Z" fill="none" stroke="#ff8a2e" stroke-width="4" opacity="0.8" stroke-linecap="round" stroke-linejoin="round"></path><path d="M105.4 64.0L91.1 73.9L93.0 90.4L78.1 99.5L60.0 95.5L45.2 90.7L36.8 80.2L16.1 72.4L29.6 58.0L30.5 44.1L47.4 40.4L60.0 33.0L79.2 25.5L87.7 42.4L101.4 50.4Z" fill="none" stroke="#ffd9a0" stroke-width="1.6" opacity="0.75" stroke-linecap="round" stroke-linejoin="round"></path><path d="M90.9 67.0L93.2 78.7L81.3 85.2L69.2 88.3L56.3 88.0L52.2 77.0L48.2 70.6L38.6 61.5L45.0 51.7L58.8 51.3L69.7 42.0L83.0 46.8L92.4 55.6Z" fill="#ff7a1f" stroke="none" stroke-width="0" opacity="0.55" stroke-linecap="round" stroke-linejoin="round"></path><path d="M84.6 67.0L81.2 75.0L70.9 75.8L63.6 80.7L56.9 75.6L51.4 70.5L52.2 63.7L56.6 58.1L63.4 52.4L71.9 56.3L75.5 62.0Z" fill="#ffe8b8" stroke="none" stroke-width="0" opacity="0.6" stroke-linecap="round" stroke-linejoin="round"></path></g>
<g transform="translate(336,0)"><path d="M186.7 96.0L151.4 119.8L139.5 147.7L106.5 167.0L65.8 161.2L43.4 134.2L14.3 112.5L24.3 81.5L45.8 59.5L69.4 38.5L105.8 29.9L147.7 34.6L171.0 63.7Z" fill="url(#sh-soot)" stroke="none" stroke-width="0" opacity="1" stroke-linecap="round" stroke-linejoin="round"></path></g>
<g transform="translate(0,192)"><path d="M0 12L18.3 10.1L36.6 9.8L54.9 14.8L73.1 18.4L91.4 15.8L109.7 8.0L128.0 12.0" fill="none" stroke="#0d1115" stroke-width="5" opacity="0.92" stroke-linecap="round" stroke-linejoin="round"></path><path d="M0 12L18.3 10.1L36.6 9.8L54.9 14.8L73.1 18.4L91.4 15.8L109.7 8.0L128.0 12.0" fill="none" stroke="#7f909f" stroke-width="1.2" opacity="0.22" stroke-linecap="round" stroke-linejoin="round"></path></g>
<g transform="translate(136,192)"><path d="M0 24L18 20L34 26L48 16L62 22" fill="none" stroke="#0d1115" stroke-width="3" opacity="0.8" stroke-linecap="round" stroke-linejoin="round"></path><path d="M34 26L40 40L52 46" fill="none" stroke="#0d1115" stroke-width="2.2" opacity="0.7" stroke-linecap="round" stroke-linejoin="round"></path></g>
<g transform="translate(208,192)"><path d="M6 8L58 6L60 26L8 28Z" fill="#0a0d10" stroke="none" stroke-width="0" opacity="0.5" transform="translate(3,4)" stroke-linecap="round" stroke-linejoin="round"></path><path d="M6 8L58 6L60 26L8 28Z" fill="#3d4854" stroke="#10141a" stroke-width="2.5" opacity="1" stroke-linecap="round" stroke-linejoin="round"></path><path d="M9 10L56 8.5" fill="none" stroke="#6d7c8a" stroke-width="1.5" opacity="0.4" stroke-linecap="round" stroke-linejoin="round"></path><path d="M10 17L55 18" fill="none" stroke="#2b3542" stroke-width="2" opacity="0.6" stroke-linecap="round" stroke-linejoin="round"></path><path d="M9.4 12.0a2.6 2.6 0 1 0 5.2 0a2.6 2.6 0 1 0 -5.2 0Z" fill="#6f7b87" stroke="#171d24" stroke-width="1" opacity="1" stroke-linecap="round" stroke-linejoin="round"></path><path d="M50.4 11.0a2.6 2.6 0 1 0 5.2 0a2.6 2.6 0 1 0 -5.2 0Z" fill="#6f7b87" stroke="#171d24" stroke-width="1" opacity="1" stroke-linecap="round" stroke-linejoin="round"></path><path d="M10.4 24.0a2.6 2.6 0 1 0 5.2 0a2.6 2.6 0 1 0 -5.2 0Z" fill="#6f7b87" stroke="#171d24" stroke-width="1" opacity="1" stroke-linecap="round" stroke-linejoin="round"></path><path d="M51.4 23.0a2.6 2.6 0 1 0 5.2 0a2.6 2.6 0 1 0 -5.2 0Z" fill="#6f7b87" stroke="#171d24" stroke-width="1" opacity="1" stroke-linecap="round" stroke-linejoin="round"></path></g>
<g transform="translate(280,192)"><path d="M23.6 16.0L25.9 20.6L18.0 22.3L11.4 20.3L9.3 17.3L8.2 14.4L12.0 12.2L18.0 9.8L23.9 12.3Z" fill="#141a21" stroke="#0a0d10" stroke-width="2" opacity="0.9" stroke-linecap="round" stroke-linejoin="round"></path><path d="M21.5 17.0L22.0 19.8L17.0 19.5L13.0 19.2L9.4 17.0L12.9 14.7L17.0 12.9L21.3 14.7Z" fill="#0a0d10" stroke="none" stroke-width="0" opacity="1" stroke-linecap="round" stroke-linejoin="round"></path><path d="M23.1 15.0L25.9 20.0L17.5 22.8L9.9 19.9L5.5 16.9L3.0 12.6L8.7 9.0L16.9 9.2L23.7 11.0Z" fill="none" stroke="#6b4a2c" stroke-width="2" opacity="0.22" stroke-linecap="round" stroke-linejoin="round"></path></g>
<g transform="translate(320,192)"><path d="M4.8 8.0a3.2 3.2 0 1 0 6.4 0a3.2 3.2 0 1 0 -6.4 0Z" fill="#ff8f34" stroke="none" stroke-width="0" opacity="0.85" stroke-linecap="round" stroke-linejoin="round"></path><path d="M6.4 8.0a1.6 1.6 0 1 0 3.2 0a1.6 1.6 0 1 0 -3.2 0Z" fill="#ffc06a" stroke="none" stroke-width="0" opacity="1" stroke-linecap="round" stroke-linejoin="round"></path></g></svg>