<svg xmlns="http://www.w3.org/2000/svg" viewBox="0 0 800 400" width="800" height="400"><defs>
<radialGradient id="sh-soot"><stop offset="0" stop-color="#05080b" stop-opacity="0.78"></stop><stop offset="0.55" stop-color="#05080b" stop-opacity="0.42"></stop><stop offset="1" stop-color="#05080b" stop-opacity="0"></stop></radialGradient>
<radialGradient id="sh-hot"><stop offset="0" stop-color="#ff9430" stop-opacity="0.8"></stop><stop offset="0.45" stop-color="#e0561a" stop-opacity="0.38"></stop><stop offset="1" stop-color="#e0561a" stop-opacity="0"></stop></radialGradient>
</defs><g transform="translate(0,0) scale(1.5)"><path d="M99.6 53.0L82.2 66.9L70.3 77.1L54.7 84.4L31.9 92.2L8.3 83.3L14.6 60.2L-2.4 42.4L18.1 29.9L30.6 11.1L55.7 14.7L79.9 17.4L83.0 38.8Z" fill="#05070a" stroke="none" stroke-width="0" opacity="0.5" stroke-linecap="round" stroke-linejoin="round"></path><path d="M87.3 50.0L83.3 62.9L73.4 73.1L60.4 81.3L44.9 74.4L27.8 78.7L12.7 71.1L6.4 57.3L9.2 43.2L23.6 35.5L33.8 29.8L45.0 26.7L58.0 24.8L71.6 28.5L84.4 36.7Z" fill="#141920" stroke="#000000" stroke-width="5" opacity="1" stroke-linecap="round" stroke-linejoin="round"></path><path d="M70.6 51.0L66.8 58.2L60.6 63.6L53.2 72.5L42.1 68.2L36.4 60.9L23.2 56.4L30.2 47.0L38.5 42.6L43.2 36.4L52.7 33.1L58.4 41.0L68.1 43.2Z" fill="#030405" stroke="none" stroke-width="0" opacity="1" stroke-linecap="round" stroke-linejoin="round"></path><path d="M39.5 36L56.5 38" fill="none" stroke="#7b8b98" stroke-width="2.4" opacity="0.55" stroke-linecap="round" stroke-linejoin="round"></path><path d="M33.4 48L62.6 50" fill="none" stroke="#7b8b98" stroke-width="2.4" opacity="0.55" stroke-linecap="round" stroke-linejoin="round"></path><path d="M34.5 60L61.5 62" fill="none" stroke="#7b8b98" stroke-width="2.4" opacity="0.55" stroke-linecap="round" stroke-linejoin="round"></path><path d="M87.3 50.0L83.3 62.9L73.4 73.1L60.4 81.3L44.9 74.4L27.8 78.7L12.7 71.1L6.4 57.3L9.2 43.2L23.6 35.5L33.8 29.8L45.0 26.7L58.0 24.8L71.6 28.5L84.4 36.7Z" fill="none" stroke="#9a5b2d" stroke-width="3.5" opacity="0.5" stroke-linecap="round" stroke-linejoin="round"></path><path d="M20 28a40 40 0 0 1 34 -10" fill="none" stroke="#d7e0e8" stroke-width="3" opacity="0.45" stroke-linecap="round" stroke-linejoin="round"></path></g>
<g transform="translate(144,0) scale(1.5)"><path d="M90.2 56.0L90.2 68.5L79.9 77.7L67.0 83.7L52.7 81.7L38.9 80.3L28.7 72.2L13.1 63.5L26.7 50.9L17.8 33.2L32.6 22.8L51.7 22.3L64.8 33.8L74.9 38.8L89.9 43.6Z" fill="none" stroke="#000000" stroke-width="5" opacity="0.9" stroke-linecap="round" stroke-linejoin="round"></path><path d="M90.2 56.0L90.2 68.5L79.9 77.7L67.0 83.7L52.7 81.7L38.9 80.3L28.7 72.2L13.1 63.5L26.7 50.9L17.8 33.2L32.6 22.8L51.7 22.3L64.8 33.8L74.9 38.8L89.9 43.6Z" fill="none" stroke="#9a5b2d" stroke-width="3" opacity="0.4" stroke-linecap="round" stroke-linejoin="round"></path><path d="M97.2 52.0L89.6 65.4L83.4 79.7L63.4 78.2L48.0 90.6L28.2 87.2L18.5 72.5L12.4 59.1L16.3 45.6L10.0 26.4L33.5 24.3L48.3 15.0L64.5 23.0L81.1 26.4L101.9 34.2Z" fill="none" stroke="#5c4029" stroke-width="9" opacity="0.18" stroke-linecap="round" stroke-linejoin="round"></path><path d="M22 34a48 48 0 0 1 40 -12" fill="none" stroke="#d7e0e8" stroke-width="3" opacity="0.35" stroke-linecap="round" stroke-linejoin="round"></path></g>
<g transform="translate(312,0) scale(1.5)"><path d="M114.6 64.0L115.6 86.2L94.2 99.9L70.3 106.6L44.9 105.3L32.7 86.8L23.5 72.2L10.7 53.2L23.0 34.2L48.2 29.8L71.0 16.6L96.5 25.4L114.5 42.3Z" fill="url(#sh-hot)" stroke="none" stroke-width="0" opacity="1" stroke-linecap="round" stroke-linejoin="round"></path><path d="M99.4 64.0L101.4 77.6L88.1 85.9L78.8 101.5L59.6 98.3L46.8 88.4L39.9 78.4L28.0 70.3L23.2 56.9L23.3 39.7L40.8 31.1L59.6 29.8L77.5 30.0L92.1 38.4L98.6 51.4Z" fill="none" stroke="#c2521c" stroke-width="9" opacity="0.4" stroke-linecap="round" stroke-linejoin="round"></path><path d="M99.4 64.0L101.4 77.6L88.1 85.9L78.8 101.5L59.6 98.3L46.8 88.4L39.9 78.4L28.0 70.3L23.2 56.9L23.3 39.7L40.8 31.1L59.6 29.8L77.5 30.0L92.1 38.4L98.6 51.4Z" fill="none" stroke="#ff8a2e" stroke-width="4" opacity="0.8" stroke-linecap="round" stroke-linejoin="round"></path><path d="M99.4 64.0L101.4 77.6L88.1 85.9L78.8 101.5L59.6 98.3L46.8 88.4L39.9 78.4L28.0 70.3L23.2 56.9L23.3 39.7L40.8 31.1L59.6 29.8L77.5 30.0L92.1 38.4L98.6 51.4Z" fill="none" stroke="#ffd9a0" stroke-width="1.6" opacity="0.75" stroke-linecap="round" stroke-linejoin="round"></path><path d="M97.9 67.0L93.4 78.8L77.8 81.0L69.5 90.6L57.4 85.6L46.2 81.4L41.7 71.9L41.9 62.1L42.9 50.2L57.2 47.9L68.4 50.8L84.7 44.8L83.5 59.5Z" fill="#ff7a1f" stroke="none" stroke-width="0" opacity="0.55" stroke-linecap="round" stroke-linejoin="round"></path><path d="M81.2 67.0L81.3 75.1L73.3 80.1L64.1 77.9L54.7 77.7L52.2 70.3L54.1 64.1L56.4 57.9L63.7 53.6L74.0 52.6L80.7 59.2Z" fill="#ffe8b8" stroke="none" stroke-width="0" opacity="0.6" stroke-linecap="round" stroke-linejoin="round"></path></g>
<g transform="translate(504,0) scale(1.5)"><path d="M168.5 96.0L159.7 123.4L142.1 150.8L106.6 167.6L66.5 159.7L44.7 133.3L35.3 108.3L6.1 77.8L32.4 49.8L70.8 41.5L103.2 47.4L133.7 51.2L153.2 71.4Z" fill="url(#sh-soot)" stroke="none" stroke-width="0" opacity="1" stroke-linecap="round" stroke-linejoin="round"></path></g>
<g transform="translate(0,288) scale(1.5)"><path d="M0 12L18.3 16.2L36.6 13.1L54.9 4.7L73.1 17.5L91.4 5.2L109.7 10.0L128.0 12.0" fill="none" stroke="#000000" stroke-width="8" opacity="0.95" stroke-linecap="round" stroke-linejoin="round"></path><path d="M0 12L18.3 16.2L36.6 13.1L54.9 4.7L73.1 17.5L91.4 5.2L109.7 10.0L128.0 12.0" fill="none" stroke="#9aabb8" stroke-width="2" opacity="0.3" stroke-linecap="round" stroke-linejoin="round"></path></g>
<g transform="translate(204,288) scale(1.5)"><path d="M0 24L18 20L34 26L48 16L62 22" fill="none" stroke="#000000" stroke-width="4.5" opacity="0.85" stroke-linecap="round" stroke-linejoin="round"></path><path d="M34 26L40 40L52 46" fill="none" stroke="#000000" stroke-width="3.2" opacity="0.75" stroke-linecap="round" stroke-linejoin="round"></path></g>
<g transform="translate(312,288) scale(1.5)"><path d="M6 8L58 6L60 26L8 28Z" fill="#000000" stroke="none" stroke-width="0" opacity="0.6" transform="translate(3,4)" stroke-linecap="round" stroke-linejoin="round"></path><path d="M6 8L58 6L60 26L8 28Z" fill="#4a5763" stroke="#000000" stroke-width="3.5" opacity="1" stroke-linecap="round" stroke-linejoin="round"></path><path d="M9 10L56 8.5" fill="none" stroke="#9baab6" stroke-width="2" opacity="0.55" stroke-linecap="round" stroke-linejoin="round"></path><path d="M10 17L55 18" fill="none" stroke="#1c2530" stroke-width="3" opacity="0.7" stroke-linecap="round" stroke-linejoin="round"></path><path d="M8.4 12.0a3.6 3.6 0 1 0 7.2 0a3.6 3.6 0 1 0 -7.2 0Z" fill="#c3ccd4" stroke="#171d24" stroke-width="1.4" opacity="1" stroke-linecap="round" stroke-linejoin="round"></path><path d="M49.4 11.0a3.6 3.6 0 1 0 7.2 0a3.6 3.6 0 1 0 -7.2 0Z" fill="#c3ccd4" stroke="#171d24" stroke-width="1.4" opacity="1" stroke-linecap="round" stroke-linejoin="round"></path><path d="M9.4 24.0a3.6 3.6 0 1 0 7.2 0a3.6 3.6 0 1 0 -7.2 0Z" fill="#c3ccd4" stroke="#171d24" stroke-width="1.4" opacity="1" stroke-linecap="round" stroke-linejoin="round"></path><path d="M50.4 23.0a3.6 3.6 0 1 0 7.2 0a3.6 3.6 0 1 0 -7.2 0Z" fill="#c3ccd4" stroke="#171d24" stroke-width="1.4" opacity="1" stroke-linecap="round" stroke-linejoin="round"></path></g>
<g transform="translate(408,288) scale(1.5)"><path d="M31.1 16.0L25.0 20.1L18.6 24.1L10.0 21.7L8.0 17.6L2.0 13.2L8.5 8.9L17.8 10.2L24.0 12.3Z" fill="#0c1015" stroke="#000000" stroke-width="2.6" opacity="0.95" stroke-linecap="round" stroke-linejoin="round"></path><path d="M24.8 17.0L22.5 20.0L17.0 20.6L12.1 19.7L9.2 17.0L12.7 14.7L17.0 12.7L22.9 13.8Z" fill="#030405" stroke="none" stroke-width="0" opacity="1" stroke-linecap="round" stroke-linejoin="round"></path><path d="M31.2 15.0L25.6 19.9L17.8 23.8L8.2 21.5L4.1 17.2L1.6 12.3L9.2 9.5L17.0 8.6L25.6 10.1Z" fill="none" stroke="#8a5c34" stroke-width="2.6" opacity="0.3" stroke-linecap="round" stroke-linejoin="round"></path></g>
<g transform="translate(456,288) scale(1.5)"><path d="M4.8 8.0a3.2 3.2 0 1 0 6.4 0a3.2 3.2 0 1 0 -6.4 0Z" fill="#ff8f34" stroke="none" stroke-width="0" opacity="0.85" stroke-linecap="round" stroke-linejoin="round"></path><path d="M6.4 8.0a1.6 1.6 0 1 0 3.2 0a1.6 1.6 0 1 0 -3.2 0Z" fill="#ffc06a" stroke="none" stroke-width="0" opacity="1" stroke-linecap="round" stroke-linejoin="round"></path></g></svg>